<mxfile host="app.diagrams.net" agent="Mozilla/5.0 (X11; Linux x86_64) AppleWebKit/537.36 (KHTML, like Gecko) Chrome/134.0.0.0 Safari/537.36" version="26.1.1">
  <diagram name="Page-1" id="x-sp5n_RfBR276ARIkhd">
    <mxGraphModel dx="818" dy="543" grid="1" gridSize="10" guides="1" tooltips="1" connect="1" arrows="1" fold="1" page="1" pageScale="1" pageWidth="850" pageHeight="1100" math="0" shadow="0">
      <root>
        <mxCell id="0" />
        <mxCell id="1" parent="0" />
        <mxCell id="YumuRFGGB4Yu9ukM9yHh-6" style="rounded=0;orthogonalLoop=1;jettySize=auto;html=1;entryX=0.5;entryY=0;entryDx=0;entryDy=0;shape=flexArrow;fillColor=#e1d5e7;strokeColor=#9673a6;" edge="1" parent="1" source="YumuRFGGB4Yu9ukM9yHh-2" target="YumuRFGGB4Yu9ukM9yHh-3">
          <mxGeometry relative="1" as="geometry" />
        </mxCell>
        <mxCell id="YumuRFGGB4Yu9ukM9yHh-7" style="rounded=0;orthogonalLoop=1;jettySize=auto;html=1;strokeWidth=1;shape=flexArrow;fillColor=#e1d5e7;strokeColor=#9673a6;" edge="1" parent="1" source="YumuRFGGB4Yu9ukM9yHh-2" target="YumuRFGGB4Yu9ukM9yHh-4">
          <mxGeometry relative="1" as="geometry">
            <Array as="points">
              <mxPoint x="490" y="320" />
            </Array>
          </mxGeometry>
        </mxCell>
        <mxCell id="YumuRFGGB4Yu9ukM9yHh-2" value="Controller" style="rounded=1;whiteSpace=wrap;html=1;fillColor=#dae8fc;strokeColor=#6c8ebf;" vertex="1" parent="1">
          <mxGeometry x="360" y="210" width="150" height="80" as="geometry" />
        </mxCell>
        <mxCell id="YumuRFGGB4Yu9ukM9yHh-8" style="edgeStyle=orthogonalEdgeStyle;rounded=0;orthogonalLoop=1;jettySize=auto;html=1;shape=flexArrow;fillColor=#e1d5e7;strokeColor=#9673a6;" edge="1" parent="1" source="YumuRFGGB4Yu9ukM9yHh-3" target="YumuRFGGB4Yu9ukM9yHh-4">
          <mxGeometry relative="1" as="geometry" />
        </mxCell>
        <mxCell id="YumuRFGGB4Yu9ukM9yHh-3" value="View" style="rounded=1;whiteSpace=wrap;html=1;fillColor=#d5e8d4;strokeColor=#82b366;" vertex="1" parent="1">
          <mxGeometry x="270" y="350" width="150" height="80" as="geometry" />
        </mxCell>
        <mxCell id="YumuRFGGB4Yu9ukM9yHh-4" value="Model" style="rounded=1;whiteSpace=wrap;html=1;fillColor=#f8cecc;strokeColor=#b85450;" vertex="1" parent="1">
          <mxGeometry x="470" y="350" width="150" height="80" as="geometry" />
        </mxCell>
      </root>
    </mxGraphModel>
  </diagram>
</mxfile>
